<svg width="195" height="27" viewBox="0 0 195 27" fill="none" xmlns="http://www.w3.org/2000/svg">
<path d="M45.7677 22.4096C44.6119 22.4096 43.4952 22.23 42.4176 21.8708C41.3556 21.4959 40.52 20.9961 39.9109 20.3715C39.7078 20.1996 39.6063 19.9731 39.6063 19.692C39.6063 19.5202 39.6532 19.3719 39.7469 19.2469C39.8562 19.122 39.9734 19.0596 40.0983 19.0596C40.2545 19.0596 40.4341 19.1376 40.6371 19.2937C42.1052 20.512 43.8154 21.1212 45.7677 21.1212C47.1889 21.1212 48.2822 20.84 49.0475 20.2777C49.8284 19.6999 50.2189 18.8877 50.2189 17.8413C50.2189 17.2322 50.0314 16.7403 49.6566 16.3654C49.2818 15.9906 48.8054 15.7016 48.2275 15.4985C47.6497 15.2799 46.8766 15.0612 45.9082 14.8425C44.6276 14.5614 43.589 14.2726 42.7924 13.9758C42.0115 13.6791 41.3478 13.234 40.8011 12.6405C40.2545 12.0314 39.9812 11.2192 39.9812 10.204C39.9812 9.2826 40.2232 8.47043 40.7074 7.76758C41.2072 7.04915 41.9022 6.49471 42.7924 6.10427C43.6827 5.71376 44.7057 5.51855 45.8614 5.51855C46.939 5.51855 47.9542 5.6982 48.9069 6.05741C49.8596 6.40104 50.6484 6.90075 51.2731 7.55672C51.4761 7.75974 51.5776 7.98627 51.5776 8.23615C51.5776 8.408 51.523 8.55638 51.4137 8.68129C51.3199 8.80627 51.2106 8.86872 51.0857 8.86872C50.9295 8.86872 50.7499 8.79064 50.5468 8.63444C49.7035 7.94724 48.9382 7.47083 48.251 7.2053C47.5794 6.93983 46.7829 6.80713 45.8614 6.80713C44.4714 6.80713 43.3859 7.10384 42.605 7.6973C41.8241 8.29081 41.4337 9.11861 41.4337 10.1806C41.4337 10.821 41.6054 11.3442 41.949 11.7503C42.2926 12.1408 42.7378 12.453 43.2844 12.6872C43.8467 12.9215 44.5651 13.1481 45.4397 13.3668L46.0488 13.5072C47.3139 13.8196 48.3134 14.1086 49.0475 14.3741C49.7816 14.6396 50.3985 15.0535 50.8983 15.6157C51.4137 16.1623 51.6714 16.9042 51.6714 17.8413C51.6714 18.7316 51.4215 19.5281 50.9217 20.2309C50.4375 20.9181 49.7425 21.4569 48.8367 21.8473C47.9464 22.2222 46.9234 22.4096 45.7677 22.4096Z" fill="#141C31"/>
<path d="M69.1856 5.58936C69.4199 5.58936 69.5995 5.65966 69.7244 5.80021C69.8494 5.92519 69.9119 6.10483 69.9119 6.33907V21.5901C69.9119 21.8244 69.8494 22.0119 69.7244 22.1524C69.5995 22.2773 69.4199 22.3399 69.1856 22.3399C68.967 22.3399 68.7952 22.2696 68.6702 22.129C68.5453 21.9884 68.4828 21.8088 68.4828 21.5901V14.4682H57.9405V21.5901C57.9405 21.8088 57.8781 21.9884 57.7531 22.129C57.6282 22.2696 57.4564 22.3399 57.2377 22.3399C57.0191 22.3399 56.8395 22.2696 56.6989 22.129C56.5739 21.9884 56.5115 21.8088 56.5115 21.5901V6.33907C56.5115 6.12041 56.5739 5.94077 56.6989 5.80021C56.8395 5.65966 57.0191 5.58936 57.2377 5.58936C57.4564 5.58936 57.6282 5.65966 57.7531 5.80021C57.8781 5.94077 57.9405 6.12041 57.9405 6.33907V13.2033H68.4828V6.33907C68.4828 6.12041 68.5453 5.94077 68.6702 5.80021C68.7952 5.65966 68.967 5.58936 69.1856 5.58936Z" fill="#141C31"/>
<path d="M82.4943 22.4106C80.995 22.4106 79.6909 22.0748 78.582 21.4033C77.4731 20.7161 76.6219 19.7399 76.0284 18.4748C75.4349 17.1941 75.1382 15.6948 75.1382 13.9768C75.1382 12.2432 75.4349 10.7438 76.0284 9.47873C76.6219 8.19807 77.4653 7.22189 78.5586 6.55027C79.6674 5.86307 80.9794 5.51953 82.4943 5.51953C84.0093 5.51953 85.3212 5.86307 86.4301 6.55027C87.539 7.22189 88.3902 8.19023 88.9837 9.4553C89.5772 10.7204 89.8739 12.2197 89.8739 13.9534C89.8739 15.687 89.5772 17.1941 88.9837 18.4748C88.3902 19.7399 87.539 20.7161 86.4301 21.4033C85.3212 22.0748 84.0093 22.4106 82.4943 22.4106ZM82.4943 21.1221C84.3529 21.1221 85.7976 20.4973 86.8284 19.2479C87.8592 17.9984 88.3746 16.2336 88.3746 13.9534C88.3746 11.6731 87.8592 9.91611 86.8284 8.68227C85.8132 7.43285 84.3685 6.8081 82.4943 6.8081C80.6358 6.8081 79.1911 7.43285 78.1603 8.68227C77.1451 9.93176 76.6375 11.6887 76.6375 13.9534C76.6375 16.218 77.1451 17.9828 78.1603 19.2479C79.1911 20.4973 80.6358 21.1221 82.4943 21.1221Z" fill="#141C31"/>
<path d="M107.468 21.3566C107.561 21.4973 107.608 21.63 107.608 21.7549C107.608 21.9267 107.538 22.0751 107.397 22.2001C107.273 22.3094 107.124 22.3641 106.952 22.3641C106.687 22.3641 106.476 22.2391 106.32 21.9892L103.157 16.929C102.704 16.2106 102.236 15.7185 101.751 15.453C101.283 15.1875 100.627 15.0548 99.7836 15.0548H96.5741V21.5909C96.5741 21.8252 96.5038 22.0126 96.3632 22.1532C96.2383 22.2781 96.0665 22.3406 95.8478 22.3406C95.6292 22.3406 95.4496 22.2781 95.309 22.1532C95.1841 22.0126 95.1216 21.8252 95.1216 21.5909V6.43356C95.1216 6.23049 95.1919 6.05869 95.3324 5.91813C95.4886 5.77758 95.676 5.70728 95.8947 5.70728H101.728C103.462 5.70728 104.797 6.1056 105.734 6.90213C106.671 7.68301 107.14 8.83083 107.14 10.3458C107.14 11.6734 106.741 12.7276 105.945 13.5085C105.148 14.2895 104.024 14.7425 102.571 14.8674C102.946 14.9924 103.29 15.2031 103.602 15.4998C103.915 15.781 104.235 16.1792 104.563 16.6946L107.468 21.3566ZM101.634 13.8132C104.352 13.8132 105.711 12.6496 105.711 10.3225C105.711 9.18231 105.375 8.33888 104.703 7.7923C104.032 7.23001 103.009 6.94887 101.634 6.94887H96.5506V13.8132H101.634Z" fill="#141C31"/>
<path d="M117.009 22.3406C116.791 22.3406 116.619 22.2703 116.494 22.1298C116.369 21.9892 116.307 21.8096 116.307 21.5909V6.97242H110.895C110.692 6.97242 110.528 6.91775 110.403 6.80842C110.294 6.69909 110.239 6.54292 110.239 6.33985C110.239 6.13684 110.294 5.9806 110.403 5.87128C110.528 5.76195 110.692 5.70728 110.895 5.70728H123.124C123.311 5.70728 123.468 5.76973 123.593 5.8947C123.717 6.00397 123.78 6.15242 123.78 6.33985C123.78 6.52728 123.717 6.68344 123.593 6.80842C123.468 6.91775 123.311 6.97242 123.124 6.97242H117.736V21.5909C117.736 21.8096 117.665 21.9892 117.525 22.1298C117.4 22.2703 117.228 22.3406 117.009 22.3406Z" fill="#141C31"/>
<path d="M128.372 22.3406C128.154 22.3406 127.974 22.2703 127.833 22.1298C127.708 21.9892 127.646 21.8096 127.646 21.5909V6.43356C127.646 6.23049 127.716 6.05869 127.857 5.91813C128.013 5.77758 128.2 5.70728 128.419 5.70728H137.087C137.29 5.70728 137.446 5.76195 137.556 5.87128C137.681 5.9806 137.743 6.13684 137.743 6.33985C137.743 6.54292 137.681 6.69909 137.556 6.80842C137.446 6.9021 137.29 6.94887 137.087 6.94887H129.098V13.2041H136.619C136.822 13.2041 136.978 13.2587 137.087 13.3681C137.212 13.4774 137.275 13.6335 137.275 13.8365C137.275 14.0395 137.212 14.1958 137.087 14.3051C136.978 14.4144 136.822 14.469 136.619 14.469H129.098V21.5909C129.098 21.8252 129.036 22.0126 128.911 22.1532C128.786 22.2781 128.607 22.3406 128.372 22.3406Z" fill="#141C31"/>
<path d="M148.458 22.4106C146.959 22.4106 145.655 22.0748 144.546 21.4033C143.437 20.7161 142.586 19.7399 141.993 18.4748C141.399 17.1941 141.102 15.6948 141.102 13.9768C141.102 12.2432 141.399 10.7438 141.993 9.47873C142.586 8.19807 143.429 7.22189 144.523 6.55027C145.632 5.86307 146.943 5.51953 148.458 5.51953C149.973 5.51953 151.285 5.86307 152.394 6.55027C153.503 7.22189 154.354 8.19023 154.948 9.4553C155.541 10.7204 155.838 12.2197 155.838 13.9534C155.838 15.687 155.541 17.1941 154.948 18.4748C154.354 19.7399 153.503 20.7161 152.394 21.4033C151.285 22.0748 149.973 22.4106 148.458 22.4106ZM148.458 21.1221C150.317 21.1221 151.762 20.4973 152.792 19.2479C153.823 17.9984 154.339 16.2336 154.339 13.9534C154.339 11.6731 153.823 9.91611 152.792 8.68227C151.777 7.43285 150.333 6.8081 148.458 6.8081C146.6 6.8081 145.155 7.43285 144.124 8.68227C143.109 9.93176 142.602 11.6887 142.602 13.9534C142.602 16.218 143.109 17.9828 144.124 19.2479C145.155 20.4973 146.6 21.1221 148.458 21.1221Z" fill="#141C31"/>
<path d="M173.432 21.3566C173.525 21.4973 173.572 21.63 173.572 21.7549C173.572 21.9267 173.502 22.0751 173.361 22.2001C173.236 22.3094 173.088 22.3641 172.916 22.3641C172.651 22.3641 172.44 22.2391 172.284 21.9892L169.121 16.929C168.668 16.2106 168.2 15.7185 167.715 15.453C167.247 15.1875 166.591 15.0548 165.747 15.0548H162.538V21.5909C162.538 21.8252 162.468 22.0126 162.327 22.1532C162.202 22.2781 162.03 22.3406 161.812 22.3406C161.593 22.3406 161.413 22.2781 161.273 22.1532C161.148 22.0126 161.085 21.8252 161.085 21.5909V6.43356C161.085 6.23049 161.156 6.05869 161.296 5.91813C161.452 5.77758 161.64 5.70728 161.859 5.70728H167.692C169.426 5.70728 170.761 6.1056 171.698 6.90213C172.635 7.68301 173.104 8.83083 173.104 10.3458C173.104 11.6734 172.705 12.7276 171.909 13.5085C171.112 14.2895 169.988 14.7425 168.535 14.8674C168.91 14.9924 169.254 15.2031 169.566 15.4998C169.878 15.781 170.199 16.1792 170.527 16.6946L173.432 21.3566ZM167.598 13.8132C170.316 13.8132 171.675 12.6496 171.675 10.3225C171.675 9.18231 171.339 8.33888 170.667 7.7923C169.996 7.23001 168.973 6.94887 167.598 6.94887H162.515V13.8132H167.598Z" fill="#141C31"/>
<path d="M193.317 5.58936C193.551 5.58936 193.731 5.65966 193.856 5.80021C193.997 5.94077 194.067 6.12041 194.067 6.33907V21.5901C194.067 21.8088 194.004 21.9884 193.879 22.129C193.754 22.2696 193.583 22.3399 193.364 22.3399C193.145 22.3399 192.981 22.2773 192.872 22.1524C192.763 22.0119 192.708 21.8244 192.708 21.5901V8.5881L187.156 19.3177C186.968 19.6769 186.711 19.8565 186.383 19.8565C186.055 19.8565 185.797 19.6769 185.61 19.3177L180.011 8.68181V21.5901C180.011 21.8244 179.956 22.0119 179.847 22.1524C179.737 22.2773 179.573 22.3399 179.355 22.3399C179.12 22.3399 178.941 22.2773 178.816 22.1524C178.706 22.0119 178.652 21.8244 178.652 21.5901V6.33907C178.652 6.12041 178.714 5.94077 178.839 5.80021C178.98 5.65966 179.167 5.58936 179.401 5.58936C179.683 5.58936 179.917 5.769 180.104 6.12821L186.406 18.2167L192.614 6.12821C192.802 5.769 193.036 5.58936 193.317 5.58936Z" fill="#141C31"/>
<path d="M14.9945 24.088L8.68602 13.1614L2.37756 2.23486H14.9945H27.6114L21.3029 13.1614L14.9945 24.088Z" fill="white"/>
<path d="M14.6689 26.2734C14.4264 26.2231 14.1802 26.0874 13.9828 25.8966C13.8148 25.734 13.712 25.5579 7.3368 14.5086C3.77534 8.33632 0.732605 3.0631 0.575177 2.79069C0.303053 2.31981 0.287341 2.28503 0.256379 2.08598C0.13091 1.27941 0.598177 0.536817 1.35434 0.340899C1.48864 0.305744 2.81567 0.301907 15.0062 0.302857C26.8182 0.303237 28.5285 0.312302 28.6628 0.339856C28.8984 0.394963 29.1383 0.528911 29.3333 0.712857C29.7146 1.07267 29.8786 1.66358 29.7479 2.20753C29.713 2.35309 16.2595 25.6635 16.1144 25.83C15.9835 25.9801 15.7189 26.1525 15.5056 26.2268C15.28 26.3057 14.9161 26.3259 14.6689 26.2744V26.2734ZM15.2921 20.4917C15.4717 20.1839 15.4805 20.1684 15.5736 19.9993C15.6076 19.9376 15.644 19.8757 15.6544 19.8622C15.6649 19.8489 15.778 19.6554 15.9057 19.4324C16.4216 18.5324 16.5207 18.3616 16.5607 18.3028C16.5836 18.2686 16.6213 18.2028 16.6443 18.1555C16.6882 18.0653 16.6907 18.0606 16.8383 17.8259C16.8889 17.7452 16.9304 17.6699 16.9304 17.6584C16.9304 17.647 16.969 17.5796 17.0163 17.5102C17.0636 17.4399 17.1023 17.3687 17.1023 17.3515C17.1023 17.3354 17.1106 17.3202 17.1208 17.3202C17.1311 17.3202 17.155 17.2841 17.1741 17.2404C17.1933 17.1958 17.2501 17.0943 17.3005 17.0133C17.3508 16.9316 17.4414 16.7775 17.5018 16.6695C17.5622 16.5614 17.7069 16.3092 17.8235 16.109C17.9401 15.9089 18.0355 15.7348 18.0355 15.7222C18.0355 15.7099 18.0465 15.6986 18.06 15.6986C18.0735 15.6986 18.0846 15.6823 18.0846 15.6614C18.0846 15.6282 17.727 15.6244 15.0139 15.6244H11.9431L12.0037 15.7287C12.0369 15.7857 12.1605 15.999 12.2783 16.2016C12.3961 16.4041 12.539 16.6528 12.5959 16.754C12.6528 16.8553 12.7562 17.0355 12.8257 17.1543C12.8952 17.273 12.9521 17.3809 12.9521 17.3937C12.9521 17.407 12.9607 17.4174 12.9712 17.4174C12.9818 17.4174 13.0042 17.4488 13.0211 17.4859C13.0544 17.56 13.1237 17.6816 13.2993 17.9762C13.3619 18.0813 13.4407 18.2171 13.4745 18.2778C13.5082 18.3386 13.6101 18.5155 13.701 18.6707C13.8747 18.9675 13.9116 19.0313 14.0135 19.211C14.2344 19.6008 14.3712 19.8375 14.4768 20.0125C14.5432 20.1224 14.5974 20.2192 14.5974 20.2277C14.5974 20.2372 14.6565 20.3396 14.7288 20.4575C14.801 20.5757 14.8864 20.7219 14.9184 20.7828C15.0159 20.9679 15.0188 20.9695 15.075 20.8683C15.1027 20.8179 15.2004 20.6485 15.2921 20.4916L15.2921 20.4917ZM19.8126 12.6854C19.8207 12.6626 19.8579 12.5905 19.8953 12.5276C20.1234 12.142 20.3328 11.7801 20.3404 11.7588C20.349 11.7341 20.4105 11.628 20.779 10.9972C20.8736 10.8351 20.9861 10.6389 21.0289 10.5612C21.0716 10.4833 21.1339 10.3798 21.1673 10.3306C21.2007 10.2812 21.228 10.2263 21.228 10.2079C21.228 10.1899 21.239 10.1746 21.2525 10.1746C21.266 10.1746 21.2771 10.1642 21.2771 10.1509C21.2771 10.1376 21.3143 10.0682 21.3597 9.99741C21.4052 9.92615 21.4771 9.79892 21.5197 9.71465L21.597 9.56109H15.0255C11.4112 9.56109 8.45822 9.57051 8.46341 9.57906C8.46854 9.58951 8.49747 9.64751 8.52756 9.70804C8.55766 9.76884 8.63122 9.89582 8.69103 9.99045C8.75084 10.0855 8.80025 10.1711 8.80082 10.1819C8.80137 10.1924 8.84055 10.2627 8.88782 10.336C8.9351 10.4101 8.97377 10.4753 8.97377 10.4814C8.97377 10.4909 9.05704 10.6339 9.15883 10.8063C9.35379 11.1369 9.36069 11.1489 9.45898 11.3269C9.49312 11.3887 9.54016 11.467 9.56351 11.5007C9.58686 11.5349 9.63848 11.623 9.67819 11.6973C9.77151 11.8718 9.81458 11.9463 9.84825 11.9919C9.86325 12.0128 9.91126 12.0951 9.95493 12.176C9.99862 12.2577 10.0893 12.4146 10.1565 12.526L10.2786 12.7287H15.0383C19.5493 12.7287 19.7987 12.7287 19.8126 12.6859L19.8126 12.6854ZM23.3769 6.49693C23.4299 6.40572 23.4875 6.31658 23.5048 6.29872C23.5222 6.28066 23.5363 6.25588 23.5363 6.24258C23.5363 6.22168 23.7828 5.78897 23.9612 5.49681C24.0126 5.41225 24.0684 5.31319 24.2094 5.05456C24.2241 5.02701 24.2423 5.00044 24.2497 4.99379C24.2656 4.97954 24.5887 4.41745 24.6272 4.33698C24.6418 4.30562 24.662 4.28189 24.6721 4.28189C24.6823 4.28189 24.6907 4.26767 24.6909 4.25057C24.6912 4.23442 24.752 4.12041 24.826 3.99889C24.9001 3.87737 24.9785 3.7391 25.0003 3.69188C25.0221 3.64437 25.0595 3.57829 25.0834 3.54447C25.1073 3.51026 25.1561 3.43066 25.1919 3.36643L25.2569 3.24929H15.0265H4.79617L4.84027 3.32909C4.86452 3.37374 4.89675 3.42503 4.91189 3.44565C4.92703 3.46655 4.9724 3.54314 5.0127 3.61754C5.053 3.6926 5.22032 3.98251 5.3845 4.26356C5.54869 4.54442 5.68302 4.78041 5.68302 4.78792C5.68302 4.79742 5.71617 4.8507 5.7567 4.91075C5.79722 4.9706 5.83037 5.02591 5.83037 5.03322C5.83037 5.04273 5.85073 5.07599 5.87562 5.11209C5.9005 5.1482 5.95299 5.23815 5.99226 5.31216C6.03153 5.38722 6.09958 5.50214 6.14348 5.56941C6.18737 5.63782 6.22329 5.70008 6.22329 5.70987C6.22329 5.71937 6.2896 5.83737 6.37064 5.97153C6.45168 6.10578 6.51798 6.22701 6.51798 6.24107C6.51798 6.25532 6.53217 6.28196 6.54952 6.29906C6.56686 6.31712 6.62441 6.40616 6.67741 6.49728L6.77376 6.6629H15.0272H23.2805L23.3769 6.49693Z" fill="#FFC906"/>
</svg>
