<svg width="30" height="27" viewBox="0 0 30 27" fill="none" xmlns="http://www.w3.org/2000/svg">
<path d="M14.4328 26.4214C14.1903 26.371 13.9442 26.2353 13.7467 26.0445C13.5787 25.882 13.4759 25.7058 7.10072 14.6565C3.53925 8.48427 0.496521 3.21105 0.339093 2.93864C0.0669691 2.46776 0.051257 2.43298 0.0202951 2.23393C-0.105174 1.42736 0.362094 0.684766 1.11825 0.488849C1.25256 0.453694 2.57959 0.449856 14.7701 0.450806C26.5821 0.451186 28.2924 0.460251 28.4267 0.487805C28.6623 0.542912 28.9022 0.67686 29.0972 0.860806C29.4785 1.22062 29.6425 1.81153 29.5118 2.35548C29.4769 2.50104 16.0234 25.8114 15.8783 25.978C15.7474 26.1281 15.4828 26.3005 15.2695 26.3748C15.0439 26.4536 14.6801 26.4738 14.4328 26.4223V26.4214ZM15.056 20.6396C15.2356 20.3319 15.2444 20.3164 15.3375 20.1473C15.3715 20.0855 15.4079 20.0237 15.4183 20.0102C15.4288 19.9969 15.5419 19.8033 15.6696 19.5804C16.1855 18.6804 16.2846 18.5095 16.3246 18.4508C16.3475 18.4166 16.3852 18.3507 16.4082 18.3035C16.4521 18.2132 16.4547 18.2086 16.6022 17.9739C16.6529 17.8931 16.6943 17.8179 16.6943 17.8064C16.6943 17.795 16.733 17.7275 16.7802 17.6582C16.8275 17.5879 16.8662 17.5166 16.8662 17.4995C16.8662 17.4833 16.8746 17.4682 16.8848 17.4682C16.895 17.4682 16.919 17.4321 16.9381 17.3884C16.9572 17.3437 17.014 17.2422 17.0644 17.1613C17.1147 17.0796 17.2053 16.9254 17.2657 16.8174C17.3261 16.7094 17.4709 16.4572 17.5874 16.257C17.704 16.0569 17.7994 15.8827 17.7994 15.8702C17.7994 15.8578 17.8104 15.8465 17.8239 15.8465C17.8374 15.8465 17.8485 15.8303 17.8485 15.8094C17.8485 15.7761 17.4909 15.7724 14.7778 15.7724H11.7071L11.7676 15.8767C11.8009 15.9337 11.9245 16.147 12.0422 16.3495C12.16 16.5521 12.3029 16.8008 12.3598 16.902C12.4167 17.0032 12.5201 17.1834 12.5896 17.3022C12.6591 17.421 12.716 17.5289 12.716 17.5416C12.716 17.5549 12.7246 17.5654 12.7352 17.5654C12.7457 17.5654 12.7681 17.5968 12.785 17.6338C12.8183 17.7079 12.8876 17.8295 13.0632 18.1242C13.1258 18.2293 13.2047 18.365 13.2384 18.4257C13.2721 18.4865 13.3741 18.6634 13.465 18.8187C13.6386 19.1154 13.6755 19.1793 13.7774 19.3589C13.9983 19.7488 14.1351 19.9855 14.2407 20.1605C14.3071 20.2703 14.3613 20.3672 14.3613 20.3756C14.3613 20.3851 14.4205 20.4876 14.4927 20.6054C14.565 20.7236 14.6503 20.8698 14.6823 20.9307C14.7798 21.1158 14.7827 21.1174 14.8389 21.0162C14.8666 20.9659 14.9643 20.7965 15.056 20.6395L15.056 20.6396ZM19.5765 12.8334C19.5846 12.8106 19.6218 12.7384 19.6592 12.6755C19.8873 12.29 20.0968 11.9281 20.1044 11.9068C20.1129 11.8821 20.1745 11.7759 20.5429 11.1451C20.6376 10.983 20.75 10.7869 20.7928 10.7092C20.8356 10.6312 20.8978 10.5278 20.9312 10.4786C20.9646 10.4292 20.9919 10.3742 20.9919 10.3559C20.9919 10.3378 21.0029 10.3226 21.0164 10.3226C21.0299 10.3226 21.041 10.3121 21.041 10.2988C21.041 10.2855 21.0782 10.2161 21.1236 10.1454C21.1691 10.0741 21.2411 9.94687 21.2836 9.8626L21.3609 9.70903H14.7894C11.1751 9.70903 8.22214 9.71846 8.22733 9.72701C8.23246 9.73746 8.26139 9.79546 8.29148 9.85598C8.32158 9.91679 8.39514 10.0438 8.45495 10.1384C8.51476 10.2334 8.56417 10.3191 8.56474 10.3299C8.56528 10.3403 8.60446 10.4107 8.65173 10.4839C8.69901 10.558 8.73768 10.6233 8.73768 10.6294C8.73768 10.6389 8.82096 10.7819 8.92275 10.9542C9.11771 11.2849 9.12461 11.2968 9.2229 11.4749C9.25703 11.5366 9.30407 11.615 9.32743 11.6486C9.35077 11.6828 9.40239 11.7709 9.4421 11.8452C9.53542 12.0197 9.57849 12.0943 9.61217 12.1398C9.62716 12.1607 9.67517 12.243 9.71884 12.324C9.76253 12.4057 9.85322 12.5626 9.9204 12.6739L10.0425 12.8766H14.8022C19.3132 12.8766 19.5626 12.8766 19.5765 12.8338L19.5765 12.8334ZM23.1409 6.64488C23.1939 6.55367 23.2514 6.46453 23.2687 6.44666C23.2861 6.42861 23.3003 6.40383 23.3003 6.39053C23.3003 6.36963 23.5467 5.93692 23.7251 5.64476C23.7765 5.5602 23.8323 5.46114 23.9733 5.20251C23.9881 5.17496 24.0062 5.14839 24.0136 5.14174C24.0296 5.12749 24.3526 4.5654 24.3912 4.48493C24.4057 4.45357 24.4259 4.42984 24.436 4.42984C24.4462 4.42984 24.4546 4.41562 24.4549 4.39852C24.4551 4.38237 24.5159 4.26836 24.5899 4.14684C24.664 4.02532 24.7424 3.88705 24.7642 3.83983C24.786 3.79232 24.8234 3.72624 24.8473 3.69242C24.8712 3.65821 24.9201 3.57861 24.9558 3.51438L25.0208 3.39724H14.7905H4.56009L4.60419 3.47704C4.62844 3.52169 4.66066 3.57298 4.67581 3.5936C4.69094 3.6145 4.73631 3.69109 4.77661 3.76548C4.81692 3.84055 4.98423 4.13046 5.14842 4.41151C5.31261 4.69237 5.44694 4.92836 5.44694 4.93587C5.44694 4.94537 5.48009 4.99865 5.52061 5.0587C5.56113 5.11855 5.59429 5.17386 5.59429 5.18117C5.59429 5.19067 5.61465 5.22394 5.63953 5.26004C5.66442 5.29615 5.71691 5.3861 5.75618 5.46011C5.79545 5.53517 5.8635 5.65009 5.90739 5.71736C5.95129 5.78577 5.98721 5.84803 5.98721 5.85782C5.98721 5.86732 6.05351 5.98532 6.13455 6.11948C6.21559 6.25373 6.2819 6.37496 6.2819 6.38902C6.2819 6.40327 6.29609 6.42991 6.31343 6.44701C6.33078 6.46506 6.38833 6.55411 6.44132 6.64523L6.53768 6.81085H14.7911H23.0445L23.1409 6.64488Z" fill="#FFC906"/>
</svg>
