<?xml version="1.0" standalone="no"?>
<!DOCTYPE svg PUBLIC "-//W3C//DTD SVG 20010904//EN"
 "http://www.w3.org/TR/2001/REC-SVG-20010904/DTD/svg10.dtd">
<svg version="1.0" xmlns="http://www.w3.org/2000/svg"
 width="152.000000pt" height="152.000000pt" viewBox="0 0 152.000000 152.000000"
 preserveAspectRatio="xMidYMid meet">
<metadata>
Created by potrace 1.14, written by Peter Selinger 2001-2017
</metadata>
<g transform="translate(0.000000,152.000000) scale(0.100000,-0.100000)"
fill="#000000" stroke="none">
<path d="M114 1342 c-26 -17 -35 -50 -22 -80 7 -16 150 -266 318 -556 318
-550 315 -547 373 -532 35 8 662 1095 652 1128 -16 50 13 48 -669 48 -352 0
-646 -4 -652 -8z m1113 -129 c-2 -5 -23 -41 -47 -80 l-42 -73 -378 0 -378 0
-45 80 -46 80 470 0 c259 0 468 -3 466 -7z m-169 -290 c-1 -5 -19 -36 -38 -70
l-35 -63 -221 0 c-166 0 -224 3 -231 13 -5 6 -24 38 -42 70 l-32 57 301 0
c166 0 300 -3 298 -7z m-189 -330 c-18 -32 -50 -87 -70 -122 -42 -73 -30 -79
-104 49 -21 36 -47 80 -57 98 l-20 32 142 0 141 0 -32 -57z"/>
</g>
</svg>
